# xmcd CD database file
#
# Track frame offsets:
#	150
#	24219
#	37445
#	72642
#	98288
#	128520
#	148673
#	164508
#	188634
#	212861
#	232863
#	251834
#	274001
#
# Disc length: 3929 seconds
#
# Revision: 0
# Processed by: cddbd v1.5.1PL0 Copyright (c) Steve Scherf et al.
# Submitted via: CDex 1.51
#
DISCID=b70f570d
DTITLE=deltakicker - deltakicker DJ Mix 2004
DYEAR=2004
DGENRE=House
TTITLE0=Man of the millor -Bootleg Mix-
TTITLE1=Unknown - CZR
TTITLE2=Keep Pushin -ATFC Remix- - Inaya Day
TTITLE3=Can't Let Go - M-Gee
TTITLE4=Unknown Soul
TTITLE5=In Love with You - Paradise a.k.a. Alan Braxe
TTITLE6=Miss me
TTITLE7=P.Y.T. -Bootleg Mix-
TTITLE8=Fairlight - CLEMENS NEUFELD
TTITLE9=Chapter 7 - Gaetano Parisio
TTITLE10=Unknown - Sebastien Leger
TTITLE11=Red Velvet - DJ Misjah
TTITLE12=Southside - Dave Clarke
EXTD=YEAR: 2004
EXTT0=
EXTT1=
EXTT2=
EXTT3=
EXTT4=
EXTT5=
EXTT6=
EXTT7=
EXTT8=
EXTT9=
EXTT10=
EXTT11=
EXTT12=
PLAYORDER=
